# xmcd CD database file
#
# Track frame offsets:
#	150
#	13445
#	29147
#	42857
#	57507
#	77290
#	93625
#	108145
#	123170
#	135130
#	150607
#	162347
#	177437
#	196342
#
# Disc length: 2815 seconds
#
# Revision: 0
# Processed by: cddbd v1.5.1PL0 Copyright (c) Steve Scherf et al.
# Submitted via: CDex 1.51
#
DISCID=b10afd0e
DTITLE=D'Angelis - Tranquility - Seaman
DYEAR=1900
DGENRE=New Age
TTITLE0=Reach for the sky
TTITLE1=Karma
TTITLE2=Instant
TTITLE3=Lovely Rose
TTITLE4=Landscape
TTITLE5=Pyramid
TTITLE6=Flying Tapestry
TTITLE7=Magic Guitar
TTITLE8=Gentle River
TTITLE9=Seaman
TTITLE10=Mirage
TTITLE11=Humming-bird
TTITLE12=Desire
TTITLE13=Divinity
EXTD=
EXTT0=
EXTT1=
EXTT2=
EXTT3=
EXTT4=
EXTT5=
EXTT6=
EXTT7=
EXTT8=
EXTT9=
EXTT10=
EXTT11=
EXTT12=
EXTT13=
PLAYORDER=
